Coordinates
version=1
nRows=6
nColumns=36
inDegrees=yes

Units are S.I. units (second, meters, Newtons, ...)
If the header above contains a line with 'inDegrees', this indicates whether rotational values are in degrees (yes) or radians (no).

endheader
time	pelvis_tilt	pelvis_list	pelvis_rotation	pelvis_tx	pelvis_ty	pelvis_tz	hip_flexion_r	hip_adduction_r	hip_rotation_r	knee_angle_r	knee_angle_r_beta	ankle_angle_r	subtalar_angle_r	mtp_angle_r	hip_flexion_l	hip_adduction_l	hip_rotation_l	knee_angle_l	knee_angle_l_beta	ankle_angle_l	subtalar_angle_l	mtp_angle_l	lumbar_extension	lumbar_bending	lumbar_rotation	arm_flex_r	arm_add_r	arm_rot_r	elbow_flex_r	pro_sup_r	arm_flex_l	arm_add_l	arm_rot_l	elbow_flex_l	pro_sup_l
      1.85000000	    -13.05091445	      0.87219068	      2.28473991	      0.26102637	      0.81613533	     -0.08209398	     40.83284851	    -10.14682367	     -4.43212592	     50.32707274	      0.87837312	     21.80767407	     -0.84499418	     -7.49999987	     42.06611729	     -6.57184939	     -3.56158653	     49.00680540	      0.85533011	     19.51835039	      2.56776759	     -7.49999987	    -19.45745835	      2.23311083	      9.54472796	     37.84320821	    -39.78708086	     21.90588424	     62.72584113	     73.61887220	    193.70346278	   -169.99669167	    200.40835886	     69.46691005	     70.49881964
      1.85416670	    -13.65412312	      0.69436984	      2.72659556	      0.25236115	      0.79974240	     -0.07287978	     43.87656569	     -9.62418933	     -3.97001593	     54.51220633	      0.95141748	     23.80442495	     -1.73160075	     -7.49999987	     44.76256657	     -7.42648219	     -3.29963194	     52.19803278	      0.91102754	     21.08020011	      2.32602691	     -7.49999987	    -20.21580465	      1.69032027	      8.75263577	     40.90159766	    -39.27002106	     23.15196551	     65.20718803	     73.87456583	    195.34845863	   -169.34091955	    198.86616674	     72.39438628	     70.41969799
      1.85833330	    -14.27941376	      0.45649618	      3.26870729	      0.25571040	      0.78747990	     -0.06873474	     46.57667485	     -9.27720209	     -3.81821546	     58.26169616	      1.01685843	     25.70301541	     -2.30987077	     -7.49999987	     47.76669845	     -8.16061152	     -2.69833868	     55.78191718	      0.97357812	     22.50994449	      2.84483335	     -7.49999987	    -20.74157925	      1.33910594	      7.62375149	     43.56892762	    -38.23785321	     23.91462875	     67.30311254	     74.37665474	    198.08900371	   -168.43789661	    198.98783673	     74.53925150	     70.60718150
      1.86250000	    -15.16707786	     -0.00872660	      3.78461901	      0.24757013	      0.78033233	     -0.05942765	     49.51973941	     -8.59590022	     -3.93709028	     61.37389749	      1.07117659	     26.89380202	     -2.63590709	     -7.49999987	     51.35328849	     -9.12425635	     -1.71102934	     58.98750772	      1.02952623	     23.20290437	      3.54540499	     -7.49999987	    -21.40213009	      0.79840271	      7.06291848	     46.40088914	    -37.55193360	     23.87911922	     67.98319140	     74.74043999	    201.73928966	   -167.28594684	    198.54444994	     76.87591541	     70.70712052
      1.86666670	    -15.68100798	     -0.12600926	      3.55841206	      0.23831436	      0.77541260	     -0.06822287	     52.32714874	     -8.37674522	     -3.70967781	     64.37582836	      1.12357016	     26.91930171	     -3.08815093	     -7.49999987	     54.18975345	     -9.35180947	     -0.93383646	     61.85410095	      1.07955772	     23.23559631	      3.27554842	     -7.49999987	    -22.60553480	      0.37216424	      5.58607371	     52.81668950	    -35.51025609	     27.23520433	     65.52717046	     76.18141346	    203.83666495	   -166.24620029	    197.16001194	     79.92140738	     70.40570782
      1.87083330	    -16.12150378	     -0.06543514	      3.40323799	      0.23936663	      0.76874251	     -0.06799342	     54.58001580	     -8.58843743	     -3.61025786	     66.87638818	      1.16721317	     26.58296995	     -3.18301382	     -7.49999987	     56.45169989	     -9.25127664	     -0.23689915	     63.94564537	      1.11606205	     23.03944664	      3.36275003	     -7.49999987	    -24.03266771	     -0.33949575	      5.44843602	     55.90169553	    -34.95728149	     26.54144319	     65.89629702	     76.19038301	    207.25601026	   -166.80729256	    196.99752012	     80.81484247	     70.39237581
